<?xml version="1.0" encoding="UTF-8"?>
<!DOCTYPE svg
PUBLIC "-//W3C//DTD SVG 1.1//EN"
       "http://www.w3.org/Graphics/SVG/1.1/DTD/svg11.dtd">
<svg viewBox="87 26 914 564" width="827px" height="538px" xmlns="http://www.w3.org/2000/svg" version="1.1">
   <line x1="746" y1="499" x2="736" y2="499" style="stroke:#0bf;stroke-width:1;"/>
   <line x1="647" y1="71" x2="637" y2="71" style="stroke:#0bf;stroke-width:1;"/>
   <line x1="736" y1="499" x2="647" y2="71" style="stroke:#0bf;stroke-width:1;"/>
   <line x1="738.5" y1="499" x2="742.03553390593" y2="502.53553390593" style="stroke:#0bf;stroke-width:2;"/>
   <line x1="738.5" y1="499" x2="742.03553390593" y2="495.46446609407" style="stroke:#0bf;stroke-width:2;"/>
   <line x1="642" y1="71" x2="645.53553390593" y2="74.535533905933" style="stroke:#0bf;stroke-width:2;"/>
   <line x1="642" y1="71" x2="645.53553390593" y2="67.464466094067" style="stroke:#0bf;stroke-width:2;"/>
   <line x1="746" y1="479" x2="736" y2="479" style="stroke:#c00;stroke-width:1;"/>
   <line x1="419" y1="275" x2="409" y2="275" style="stroke:#c00;stroke-width:1;"/>
   <line x1="736" y1="479" x2="419" y2="275" style="stroke:#c00;stroke-width:1;"/>
   <line x1="738.5" y1="479" x2="742.03553390593" y2="482.53553390593" style="stroke:#c00;stroke-width:2;"/>
   <line x1="738.5" y1="479" x2="742.03553390593" y2="475.46446609407" style="stroke:#c00;stroke-width:2;"/>
   <line x1="414" y1="275" x2="417.53553390593" y2="278.53553390593" style="stroke:#c00;stroke-width:2;"/>
   <line x1="414" y1="275" x2="417.53553390593" y2="271.46446609407" style="stroke:#c00;stroke-width:2;"/>
   <line x1="409" y1="295" x2="419" y2="295" style="stroke:#0b0;stroke-width:1;"/>
   <line x1="524" y1="71" x2="534" y2="71" style="stroke:#0b0;stroke-width:1;"/>
   <line x1="419" y1="295" x2="524" y2="71" style="stroke:#0b0;stroke-width:1;"/>
   <line x1="416.5" y1="295" x2="412.96446609407" y2="298.53553390593" style="stroke:#0b0;stroke-width:2;"/>
   <line x1="416.5" y1="295" x2="412.96446609407" y2="291.46446609407" style="stroke:#0b0;stroke-width:2;"/>
   <line x1="529" y1="71" x2="525.46446609407" y2="74.535533905933" style="stroke:#0b0;stroke-width:2;"/>
   <line x1="529" y1="71" x2="525.46446609407" y2="67.464466094067" style="stroke:#0b0;stroke-width:2;"/>
   <line x1="213" y1="446" x2="223" y2="446" style="stroke:#333;stroke-width:1;"/>
   <line x1="736" y1="419" x2="746" y2="419" style="stroke:#333;stroke-width:1;"/>
   <line x1="223" y1="446" x2="736" y2="419" style="stroke:#333;stroke-width:1;"/>
   <line x1="220.5" y1="446" x2="216.96446609407" y2="449.53553390593" style="stroke:#333;stroke-width:2;"/>
   <line x1="220.5" y1="446" x2="216.96446609407" y2="442.46446609407" style="stroke:#333;stroke-width:2;"/>
   <line x1="741" y1="419" x2="737.46446609407" y2="422.53553390593" style="stroke:#333;stroke-width:2;"/>
   <line x1="741" y1="419" x2="737.46446609407" y2="415.46446609407" style="stroke:#333;stroke-width:2;"/>
   <line x1="213" y1="466" x2="223" y2="466" style="stroke:#0bf;stroke-width:1;"/>
   <line x1="736" y1="499" x2="746" y2="499" style="stroke:#0bf;stroke-width:1;"/>
   <line x1="223" y1="466" x2="736" y2="499" style="stroke:#0bf;stroke-width:1;"/>
   <line x1="220.5" y1="466" x2="216.96446609407" y2="469.53553390593" style="stroke:#0bf;stroke-width:2;"/>
   <line x1="220.5" y1="466" x2="216.96446609407" y2="462.46446609407" style="stroke:#0bf;stroke-width:2;"/>
   <line x1="741" y1="499" x2="737.46446609407" y2="502.53553390593" style="stroke:#0bf;stroke-width:2;"/>
   <line x1="741" y1="499" x2="737.46446609407" y2="495.46446609407" style="stroke:#0bf;stroke-width:2;"/>
   <line x1="174" y1="123" x2="184" y2="123" style="stroke:#b0b;stroke-width:1;"/>
   <line x1="524" y1="71" x2="534" y2="71" style="stroke:#b0b;stroke-width:1;"/>
   <line x1="184" y1="123" x2="524" y2="71" style="stroke:#b0b;stroke-width:1;"/>
   <line x1="181.5" y1="123" x2="177.96446609407" y2="126.53553390593" style="stroke:#b0b;stroke-width:2;"/>
   <line x1="181.5" y1="123" x2="177.96446609407" y2="119.46446609407" style="stroke:#b0b;stroke-width:2;"/>
   <line x1="529" y1="71" x2="525.46446609407" y2="74.535533905933" style="stroke:#b0b;stroke-width:2;"/>
   <line x1="529" y1="71" x2="525.46446609407" y2="67.464466094067" style="stroke:#b0b;stroke-width:2;"/>
   <line x1="174" y1="103" x2="184" y2="103" style="stroke:#0b0;stroke-width:1;"/>
   <line x1="297" y1="275" x2="307" y2="275" style="stroke:#0b0;stroke-width:1;"/>
   <line x1="184" y1="103" x2="297" y2="275" style="stroke:#0b0;stroke-width:1;"/>
   <line x1="181.5" y1="103" x2="177.96446609407" y2="106.53553390593" style="stroke:#0b0;stroke-width:2;"/>
   <line x1="181.5" y1="103" x2="177.96446609407" y2="99.464466094067" style="stroke:#0b0;stroke-width:2;"/>
   <line x1="302" y1="275" x2="298.46446609407" y2="278.53553390593" style="stroke:#0b0;stroke-width:2;"/>
   <line x1="302" y1="275" x2="298.46446609407" y2="271.46446609407" style="stroke:#0b0;stroke-width:2;"/>
   <rect width="153" height="20" x="746" y="389" style="fill:#007;stroke:black;"/>
   <text width="153" height="20" x="751" y="403" style="fill:#fff;" font-family="Arial" font-size="16px"> comment</text>
   <rect width="153" height="20" x="746" y="409" style="fill:#aea;stroke:black;"/>
   <text width="153" height="20" x="751" y="423" style="fill:black;" font-family="Arial" font-size="16px">Comment_ID</text>
   <rect width="153" height="20" x="746" y="429" style="fill:none;stroke:black;"/>
   <text width="153" height="20" x="751" y="443" style="fill:black;" font-family="Arial" font-size="16px">Comment</text>
   <rect width="153" height="20" x="746" y="449" style="fill:none;stroke:black;"/>
   <text width="153" height="20" x="751" y="463" style="fill:black;" font-family="Arial" font-size="16px">Parent_Comment_ID</text>
   <rect width="153" height="20" x="746" y="469" style="fill:none;stroke:black;"/>
   <text width="153" height="20" x="751" y="483" style="fill:black;" font-family="Arial" font-size="16px">Post_ID</text>
   <rect width="153" height="20" x="746" y="489" style="fill:none;stroke:black;"/>
   <text width="153" height="20" x="751" y="503" style="fill:black;" font-family="Arial" font-size="16px">User_ID</text>
   <rect width="153" height="20" x="746" y="509" style="fill:none;stroke:black;"/>
   <text width="153" height="20" x="751" y="523" style="fill:black;" font-family="Arial" font-size="16px">TimePosted</text>
   <rect width="153" height="20" x="746" y="529" style="fill:none;stroke:black;"/>
   <text width="153" height="20" x="751" y="543" style="fill:black;" font-family="Arial" font-size="16px">Vote</text>
   <rect width="102" height="20" x="307" y="245" style="fill:#007;stroke:black;"/>
   <text width="102" height="20" x="312" y="259" style="fill:#fff;" font-family="Arial" font-size="16px"> posts</text>
   <rect width="102" height="20" x="307" y="265" style="fill:#aea;stroke:black;"/>
   <text width="102" height="20" x="312" y="279" style="fill:black;" font-family="Arial" font-size="16px">Post_ID</text>
   <rect width="102" height="20" x="307" y="285" style="fill:none;stroke:black;"/>
   <text width="102" height="20" x="312" y="299" style="fill:black;" font-family="Arial" font-size="16px">User_ID</text>
   <rect width="102" height="20" x="307" y="305" style="fill:none;stroke:black;"/>
   <text width="102" height="20" x="312" y="319" style="fill:black;" font-family="Arial" font-size="16px">Post_location</text>
   <rect width="102" height="20" x="307" y="325" style="fill:none;stroke:black;"/>
   <text width="102" height="20" x="312" y="339" style="fill:black;" font-family="Arial" font-size="16px">Vote</text>
   <rect width="103" height="20" x="534" y="41" style="fill:#007;stroke:black;"/>
   <text width="103" height="20" x="539" y="55" style="fill:#fff;" font-family="Arial" font-size="16px"> users</text>
   <rect width="103" height="20" x="534" y="61" style="fill:#aea;stroke:black;"/>
   <text width="103" height="20" x="539" y="75" style="fill:black;" font-family="Arial" font-size="16px">User_ID</text>
   <rect width="103" height="20" x="534" y="81" style="fill:none;stroke:black;"/>
   <text width="103" height="20" x="539" y="95" style="fill:black;" font-family="Arial" font-size="16px">UserName</text>
   <rect width="103" height="20" x="534" y="101" style="fill:none;stroke:black;"/>
   <text width="103" height="20" x="539" y="115" style="fill:black;" font-family="Arial" font-size="16px">PASSWORD</text>
   <rect width="107" height="20" x="106" y="416" style="fill:#007;stroke:black;"/>
   <text width="107" height="20" x="111" y="430" style="fill:#fff;" font-family="Arial" font-size="16px"> vote_comment</text>
   <rect width="107" height="20" x="106" y="436" style="fill:none;stroke:black;"/>
   <text width="107" height="20" x="111" y="450" style="fill:black;" font-family="Arial" font-size="16px">Comment_ID</text>
   <rect width="107" height="20" x="106" y="456" style="fill:none;stroke:black;"/>
   <text width="107" height="20" x="111" y="470" style="fill:black;" font-family="Arial" font-size="16px">User_ID</text>
   <rect width="107" height="20" x="106" y="476" style="fill:none;stroke:black;"/>
   <text width="107" height="20" x="111" y="490" style="fill:black;" font-family="Arial" font-size="16px">Voting</text>
   <rect width="72" height="20" x="102" y="73" style="fill:#007;stroke:black;"/>
   <text width="72" height="20" x="107" y="87" style="fill:#fff;" font-family="Arial" font-size="16px"> vote_post</text>
   <rect width="72" height="20" x="102" y="93" style="fill:none;stroke:black;"/>
   <text width="72" height="20" x="107" y="107" style="fill:black;" font-family="Arial" font-size="16px">Post_ID</text>
   <rect width="72" height="20" x="102" y="113" style="fill:none;stroke:black;"/>
   <text width="72" height="20" x="107" y="127" style="fill:black;" font-family="Arial" font-size="16px">User_ID</text>
   <rect width="72" height="20" x="102" y="133" style="fill:none;stroke:black;"/>
   <text width="72" height="20" x="107" y="147" style="fill:black;" font-family="Arial" font-size="16px">Voting</text>
</svg>
